<?xml version="1.0" standalone="no"?>
<!DOCTYPE svg PUBLIC "-//W3C//DTD SVG 20010904//EN"
 "http://www.w3.org/TR/2001/REC-SVG-20010904/DTD/svg10.dtd">
<svg version="1.0" xmlns="http://www.w3.org/2000/svg"
 width="199.000000pt" height="93.000000pt" viewBox="0 0 199.000000 93.000000"
 preserveAspectRatio="xMidYMid meet">
<metadata>
Created by potrace 1.15, written by Peter Selinger 2001-2017
</metadata>
<g transform="translate(0.000000,93.000000) scale(0.100000,-0.100000)"
fill="#000000" stroke="none">
<path d="M256 802 c-10 -12 -25 -18 -33 -15 -12 5 -14 1 -8 -18 4 -13 10 -27
14 -31 3 -3 80 -15 170 -27 153 -19 165 -19 195 -4 25 14 27 18 13 21 -10 2
-22 14 -27 26 -7 20 -21 24 -123 40 -63 9 -129 19 -148 22 -26 5 -38 1 -53
-14z"/>
<path d="M700 708 c-19 -5 -52 -14 -73 -19 l-38 -10 7 -47 c8 -58 19 -73 27
-34 5 23 16 33 56 51 27 11 54 21 59 21 4 0 19 -25 31 -55 l23 -55 -29 -33
c-15 -19 -49 -59 -76 -89 -41 -48 -46 -59 -41 -87 5 -23 10 -29 19 -21 17 14
185 235 185 243 0 17 -91 147 -102 146 -7 0 -29 -5 -48 -11z"/>
<path d="M327 125 c-93 -7 -170 -15 -173 -18 -2 -2 0 -16 6 -31 8 -23 15 -27
38 -22 15 3 110 10 212 17 163 10 187 14 203 31 9 11 17 24 17 29 0 11 -91 9
-303 -6z"/>
</g>
</svg>
